<svg width="48" height="48" viewBox="0 0 48 48" fill="none" xmlns="http://www.w3.org/2000/svg">
<path d="M24 3.75C20.8408 3.75002 17.7255 4.4892 14.903 5.90844C12.0806 7.32767 9.62933 9.3876 7.74529 11.9235C5.86124 14.4594 4.59666 17.401 4.05265 20.5129C3.50864 23.6249 3.70029 26.8211 4.61228 29.8457C5.52426 32.8704 7.13129 35.6398 9.30487 37.9324C11.4784 40.225 14.1583 41.9772 17.1301 43.049C20.1019 44.1208 23.2833 44.4824 26.4198 44.1049C29.5564 43.7274 32.5611 42.6213 35.1938 40.875C35.691 40.5443 36.0366 40.0296 36.1544 39.4442C36.2722 38.8587 36.1526 38.2504 35.8219 37.7531C35.4912 37.2558 34.9765 36.9103 34.391 36.7925C33.8056 36.6747 33.1973 36.7943 32.7 37.125C30.1258 38.8461 27.0966 39.76 24 39.75C20.885 39.75 17.8399 38.8263 15.2498 37.0956C12.6597 35.365 10.641 32.9052 9.44891 30.0273C8.25683 27.1493 7.94493 23.9825 8.55265 20.9273C9.16036 17.8721 10.6604 15.0657 12.8631 12.8631C15.0658 10.6604 17.8721 9.16035 20.9273 8.55263C23.9825 7.94491 27.1493 8.25682 30.0273 9.4489C32.9052 10.641 35.365 12.6597 37.0957 15.2498C38.8263 17.8398 39.75 20.8849 39.75 24C39.75 25.7437 39.4313 27.2062 38.8688 28.1062C38.3063 29.0062 37.7438 29.25 36.75 29.25C35.7563 29.25 35.1188 28.9125 34.6313 28.1062C34.1438 27.3 33.75 25.7437 33.75 24V16.5C33.7533 15.9584 33.5611 15.4337 33.2087 15.0224C32.8562 14.6111 32.3673 14.3407 31.8315 14.2609C31.2958 14.1811 30.7492 14.2972 30.2922 14.588C29.8352 14.8788 29.4985 15.3247 29.3438 15.8438C27.7961 14.829 25.9917 14.2756 24.1412 14.2484C22.2908 14.2211 20.4708 14.721 18.894 15.6897C17.3171 16.6584 16.0485 18.0559 15.2364 19.7188C14.4243 21.3818 14.1023 23.2415 14.3079 25.0807C14.5135 26.9199 15.2384 28.6625 16.3977 30.1051C17.557 31.5476 19.1029 32.6304 20.8548 33.2269C22.6066 33.8234 24.4921 33.909 26.2908 33.4738C28.0895 33.0385 29.7272 32.1003 31.0125 30.7688C32.3063 32.6813 34.275 33.75 36.75 33.75C41.3813 33.75 44.25 30.0187 44.25 24C44.2451 18.6309 42.11 13.4831 38.3134 9.68657C34.5169 5.89004 29.3691 3.75496 24 3.75ZM24 29.25C22.9617 29.25 21.9466 28.9421 21.0833 28.3652C20.2199 27.7883 19.547 26.9684 19.1496 26.0091C18.7523 25.0498 18.6483 23.9942 18.8509 22.9758C19.0535 21.9574 19.5535 21.0219 20.2877 20.2877C21.0219 19.5535 21.9574 19.0534 22.9758 18.8509C23.9942 18.6483 25.0498 18.7523 26.0091 19.1496C26.9684 19.547 27.7884 20.2199 28.3652 21.0833C28.9421 21.9466 29.25 22.9616 29.25 24C29.2451 25.3909 28.6904 26.7234 27.7069 27.7069C26.7234 28.6903 25.3909 29.2451 24 29.25Z" fill="#15B0E0"/>
</svg>
