<svg width="48" height="48" viewBox="0 0 48 48" fill="none" xmlns="http://www.w3.org/2000/svg">
<path d="M43.5 24C43.4903 28.7642 41.7419 33.361 38.583 36.9273C35.424 40.4936 31.0719 42.7841 26.3438 43.3688C26.2382 43.3792 26.1317 43.3676 26.0309 43.3348C25.9301 43.302 25.8371 43.2487 25.7579 43.1783C25.6786 43.1079 25.6148 43.0218 25.5704 42.9255C25.5261 42.8292 25.5021 42.7248 25.5 42.6188V28.5H30C30.2051 28.5004 30.4082 28.4588 30.5965 28.3776C30.7849 28.2964 30.9547 28.1775 31.0952 28.0281C31.2358 27.8787 31.3443 27.7021 31.4139 27.5091C31.4835 27.3162 31.5128 27.111 31.5 26.9063C31.4668 26.5184 31.2877 26.1576 30.9989 25.8966C30.7101 25.6356 30.333 25.4939 29.9438 25.5H25.5V21C25.5 20.2044 25.8161 19.4413 26.3787 18.8787C26.9413 18.3161 27.7044 18 28.5 18H31.5C31.7051 18.0004 31.9082 17.9588 32.0965 17.8776C32.2849 17.7964 32.4547 17.6775 32.5952 17.5281C32.7358 17.3787 32.8443 17.2021 32.9139 17.0092C32.9835 16.8162 33.0128 16.611 33 16.4063C32.9668 16.0184 32.7877 15.6576 32.4989 15.3966C32.2101 15.1356 31.833 14.9939 31.4438 15H28.5C26.9087 15 25.3826 15.6322 24.2574 16.7574C23.1321 17.8826 22.5 19.4087 22.5 21V25.5H18C17.7949 25.4996 17.5918 25.5413 17.4035 25.6225C17.2151 25.7037 17.0454 25.8226 16.9048 25.972C16.7642 26.1214 16.6557 26.298 16.5861 26.4909C16.5165 26.6839 16.4872 26.8891 16.5 27.0938C16.5332 27.4817 16.7123 27.8425 17.0011 28.1035C17.2899 28.3645 17.667 28.5062 18.0563 28.5H22.5V42.6188C22.5005 42.7239 22.4789 42.828 22.4367 42.9242C22.3944 43.0205 22.3323 43.1068 22.2545 43.1775C22.1767 43.2482 22.0849 43.3018 21.9851 43.3348C21.8853 43.3677 21.7796 43.3793 21.675 43.3688C11.775 42.1688 4.125 33.5625 4.51875 23.2688C4.73978 18.1853 6.9391 13.3895 10.6473 9.90512C14.3554 6.42076 19.2786 4.52384 24.3661 4.61928C29.4535 4.71471 34.3022 6.79494 37.877 10.4159C41.4519 14.0369 43.4698 18.9118 43.5 24Z" fill="#15B0E0"/>
</svg>
