<svg width="48" height="48" viewBox="0 0 48 48" fill="none" xmlns="http://www.w3.org/2000/svg">
<path d="M43.425 32.8313C43.0933 35.3633 41.8534 37.6887 39.9359 39.3752C38.0184 41.0616 35.5536 41.9944 33 42C18.1125 42 6 29.8875 6 15C6.00563 12.4464 6.93839 9.98166 8.62485 8.06412C10.3113 6.14659 12.6367 4.90671 15.1687 4.57501C15.8142 4.50345 16.4657 4.63934 17.0287 4.963C17.5917 5.28665 18.037 5.78123 18.3 6.37501L22.0687 15.1688C22.2642 15.6252 22.3426 16.1233 22.2968 16.6177C22.2509 17.1121 22.0823 17.5873 21.8062 18L18.6937 22.7625C20.1032 25.6228 22.4255 27.9319 25.2937 29.325L30 26.1938C30.4123 25.9158 30.8886 25.7476 31.384 25.705C31.8794 25.6623 32.3775 25.7466 32.8312 25.95L41.625 29.7C42.2188 29.963 42.7134 30.4083 43.037 30.9713C43.3607 31.5343 43.4966 32.1858 43.425 32.8313V32.8313Z" fill="#15B0E0"/>
</svg>
